<svg width="50" height="37" viewBox="0 0 50 37" fill="none" xmlns="http://www.w3.org/2000/svg">
<g clip-path="url(#clip0_502_2308)">
<path fill-rule="evenodd" clip-rule="evenodd" d="M20.7296 3.31303C12.795 5.51054 7.63095 10.1054 6.34677 18.1019C5.99716 20.278 6.48544 18.6342 7.96298 17.5306C12.7872 13.9272 22.2725 15.2024 23.589 23.4348C26.2374 38.0083 7.98446 40.5314 2.58212 32.4823C1.32528 30.6114 0.49325 28.4275 0.193446 26.0292C-1.10831 15.5983 4.24618 6.30805 13.6524 1.94421C15.3927 1.13696 17.2267 0.505195 19.2003 0.0420982C20.1886 -0.157765 20.9063 0.379428 21.2374 1.2871C21.5177 2.06218 21.6134 2.9172 20.7296 3.31303ZM46.88 3.31303C38.9454 5.51054 33.7804 10.1054 32.4972 18.1019C32.1475 20.278 32.6358 18.6342 34.1134 17.5306C38.9376 13.9272 48.4229 15.2024 49.7384 23.4348C52.3878 38.0083 34.1349 40.5314 28.7325 32.4823C27.4757 30.6114 26.6436 28.4275 26.3438 26.0292C25.0421 15.5983 30.3956 6.30805 39.8028 1.94421C41.5431 1.13696 43.3761 0.505195 45.3507 0.0420982C46.339 -0.157765 47.0567 0.379428 47.3878 1.2871C47.6681 2.06218 47.7638 2.9172 46.88 3.31303Z" fill="black"/>
</g>
<defs>
<clipPath id="clip0_502_2308">
<rect width="50" height="37" fill="white"/>
</clipPath>
</defs>
</svg>
