<?xml version="1.0" encoding="utf-8"?>
<!-- Generator: Adobe Illustrator 27.5.0, SVG Export Plug-In . SVG Version: 6.00 Build 0)  -->
<svg version="1.1" id="Layer_1" xmlns="http://www.w3.org/2000/svg" xmlns:xlink="http://www.w3.org/1999/xlink" x="0px" y="0px"
	 viewBox="0 0 363.04 352.17" style="enable-background:new 0 0 363.04 352.17;" xml:space="preserve">
<style type="text/css">
	.st0{fill:#0366FF;}
	.st1{fill:#FFFFFF;}
</style>
<g>
	<path class="st0" d="M102.17,223.26v20.02c0,2.95,2.39,5.33,5.33,5.33h160.24c2.95,0,5.33-2.38,5.33-5.33V37.36
		c0-2.94-2.38-5.33-5.33-5.33h-41.88h-10.85H107.5c-2.94,0-5.33,2.39-5.33,5.33V212.4L102.17,223.26z M262.41,237.95H112.83V42.69
		h149.58V237.95z"/>
	<path class="st0" d="M129.99,108.76h115.26c2.95,0,5.33-2.39,5.33-5.33V58.44c0-2.94-2.38-5.33-5.33-5.33H129.99
		c-2.94,0-5.33,2.39-5.33,5.33v44.98C124.66,106.37,127.05,108.76,129.99,108.76z M135.32,63.78h104.6V98.1h-104.6V63.78z"/>
	<path class="st0" d="M129.99,179.04h44.98c2.95,0,5.33-2.38,5.33-5.33v-44.98c0-2.95-2.38-5.33-5.33-5.33h-44.98
		c-2.94,0-5.33,2.38-5.33,5.33v44.98C124.66,176.65,127.05,179.04,129.99,179.04z M135.32,134.06h34.32v34.32h-34.32V134.06z"/>
	<path class="st0" d="M245.25,134.99h-40.76c-2.95,0-5.33,2.38-5.33,5.33c0,2.95,2.38,5.33,5.33,5.33h40.76
		c2.95,0,5.33-2.38,5.33-5.33C250.59,137.37,248.2,134.99,245.25,134.99z"/>
	<path class="st0" d="M245.25,154.72H207.3c-2.95,0-5.33,2.38-5.33,5.33s2.38,5.33,5.33,5.33h37.95c2.95,0,5.33-2.38,5.33-5.33
		S248.2,154.72,245.25,154.72z"/>
	<path class="st0" d="M129.99,205.75h115.26c2.95,0,5.33-2.38,5.33-5.33s-2.38-5.33-5.33-5.33H129.99c-2.94,0-5.33,2.38-5.33,5.33
		S127.05,205.75,129.99,205.75z"/>
	<path class="st0" d="M129.99,225.42h115.26c2.95,0,5.33-2.38,5.33-5.33s-2.38-5.33-5.33-5.33H129.99c-2.94,0-5.33,2.38-5.33,5.33
		S127.05,225.42,129.99,225.42z"/>
</g>
<g>
	<polygon class="st1" points="67.72,159.82 305.63,159.82 336.28,223.31 283.01,223.31 283.01,313.07 93.27,313.07 93.27,225.5 
		35.61,225.5 	"/>
	<g>
		<path class="st0" d="M289.8,232.29v81.19c0,3.68-2.99,6.67-6.67,6.67H90.77c-3.68,0-6.67-2.99-6.67-6.67v-81.19l-48.82,0.01
			c-3.68,0-6.67-2.99-6.67-6.67c0-1.19,0.31-2.31,0.86-3.28l31.24-66.15c1.13-2.4,3.52-3.81,6.02-3.82
			c80.15,0,160.3-0.01,240.46-0.01c2.49,0.02,4.88,1.43,6.02,3.83l31.24,66.15c0.55,0.97,0.86,2.09,0.86,3.28
			c0,3.68-2.99,6.67-6.67,6.67h-48.82L289.8,232.29z M193.62,188.74v118.07h82.84v-74.52h-58.07c-2.49-0.02-4.88-1.43-6.02-3.83
			l-18.76-39.72L193.62,188.74z M180.28,306.81V188.74l-18.76,39.72c-1.13,2.4-3.52,3.81-6.02,3.81l-58.07,0.01v74.52h82.84
			L180.28,306.81z M197.45,165.71l25.15,53.25h105.52l-25.15-53.25H197.45L197.45,165.71z M70.93,165.71l-25.15,53.25H151.3
			l25.15-53.25H70.93z"/>
	</g>
</g>
</svg>
